<svg width="73" height="73" viewBox="0 0 73 73" fill="none" xmlns="http://www.w3.org/2000/svg">
<g clip-path="url(#clip0)" filter="url(#filter0_d)">
<path d="M65.4126 65.0003C67.3935 65.0003 69 63.394 69 61.4128V3.58744C69 1.60596 67.3935 0 65.4126 0H7.58744C5.6057 0 4 1.60596 4 3.58744V61.4128C4 63.394 5.6057 65.0003 7.58744 65.0003H65.4126Z" fill="#395185"/>
<path d="M48.8485 65.0002V39.8287H57.2977L58.5627 30.0191H48.8485V23.7557C48.8485 20.9155 49.6374 18.98 53.7103 18.98L58.9049 18.9777V10.204C58.0061 10.0844 54.9227 9.81726 51.3355 9.81726C43.8458 9.81726 38.7184 14.3888 38.7184 22.7845V30.0191H30.2476V39.8287H38.7184V65.0002H48.8485Z" fill="white"/>
</g>
<defs>
<filter id="filter0_d" x="0" y="0" width="73" height="73" filterUnits="userSpaceOnUse" color-interpolation-filters="sRGB">
<feFlood flood-opacity="0" result="BackgroundImageFix"/>
<feColorMatrix in="SourceAlpha" type="matrix" values="0 0 0 0 0 0 0 0 0 0 0 0 0 0 0 0 0 0 127 0" result="hardAlpha"/>
<feOffset dy="4"/>
<feGaussianBlur stdDeviation="2"/>
<feComposite in2="hardAlpha" operator="out"/>
<feColorMatrix type="matrix" values="0 0 0 0 0 0 0 0 0 0 0 0 0 0 0 0 0 0 0.25 0"/>
<feBlend mode="normal" in2="BackgroundImageFix" result="effect1_dropShadow"/>
<feBlend mode="normal" in="SourceGraphic" in2="effect1_dropShadow" result="shape"/>
</filter>
<clipPath id="clip0">
<rect width="65" height="65" fill="white" transform="translate(4)"/>
</clipPath>
</defs>
</svg>
